<svg width="8" height="13" viewBox="0 0 8 13" xmlns="http://www.w3.org/2000/svg">
<path d="M3.19814 8.97461C2.21043 8.8716 1.31985 8.62834 0.55738 8.032C0.462772 7.95781 0.365094 7.88628 0.278759 7.80342C-0.0549727 7.4829 -0.0885994 7.1158 0.175477 6.7375C0.40139 6.41378 0.780624 6.32718 1.1748 6.51306C1.25113 6.54909 1.32386 6.59406 1.39351 6.64236C2.81451 7.61874 4.76659 7.64569 6.19292 6.68626C6.33423 6.57791 6.48529 6.48957 6.66036 6.44447C7.00076 6.35707 7.31822 6.4821 7.5009 6.77994C7.70959 7.12007 7.70692 7.45207 7.44979 7.71615C7.05534 8.121 6.58096 8.4139 6.05388 8.61833C5.55548 8.81155 5.00958 8.90883 4.46929 8.97341C4.55082 9.06215 4.58925 9.10578 4.64022 9.15703C5.37387 9.89414 6.11072 10.6282 6.84197 11.3676C7.0911 11.6195 7.14314 11.9319 7.00597 12.2249C6.85598 12.5452 6.52025 12.7559 6.19105 12.7333C5.98249 12.7189 5.81983 12.6151 5.67531 12.4695C5.12167 11.9124 4.55762 11.3656 4.01519 10.7979C3.85733 10.6329 3.78141 10.6641 3.6421 10.8074C3.08512 11.3808 2.51907 11.9454 1.94969 12.5068C1.69402 12.7588 1.38977 12.8042 1.09327 12.6602C0.778089 12.5074 0.57753 12.1857 0.593009 11.8624C0.603684 11.6437 0.711236 11.4766 0.861355 11.3267C1.5874 10.6018 2.31144 9.87493 3.03575 9.14875C3.08365 9.10045 3.12836 9.04921 3.19814 8.97461Z"/>
<path d="M3.79927 6.449C2.0372 6.443 0.592319 4.98224 0.602594 3.21737C0.612735 1.43302 2.05855 -0.00492458 3.83796 1.26762e-05C5.62098 0.00481649 7.05211 1.46344 7.04317 3.26634C7.0341 5.02761 5.57921 6.45514 3.79927 6.449ZM5.40067 3.22164C5.3976 2.34534 4.69971 1.64772 3.82515 1.64692C2.94325 1.64599 2.23909 2.35628 2.2459 3.24059C2.25244 4.11355 2.95633 4.80623 3.83329 4.80303C4.70759 4.79996 5.40361 4.0978 5.40067 3.22164Z"/>
</svg>
