<svg width="17" height="9" viewBox="0 0 17 9" xmlns="http://www.w3.org/2000/svg">
<path fill-rule="evenodd" clip-rule="evenodd" d="M8.05398 8.95145H8.99583C8.99583 8.95145 9.28033 8.92022 9.42558 8.76364C9.55927 8.61989 9.55499 8.34993 9.55499 8.34993C9.55499 8.34993 9.5366 7.08614 10.1231 6.90004C10.7013 6.71672 11.4438 8.12148 12.2308 8.6616C12.8259 9.07039 13.2781 8.98076 13.2781 8.98076L15.3824 8.95145C15.3824 8.95145 16.4832 8.88364 15.9612 8.01816C15.9184 7.94735 15.6572 7.37792 14.3967 6.20783C13.0773 4.98318 13.254 5.18126 14.8433 3.0629C15.8113 1.7728 16.1982 0.985179 16.0774 0.647841C15.9621 0.326546 15.2502 0.411469 15.2502 0.411469L12.8809 0.426229C12.8809 0.426229 12.7053 0.402271 12.575 0.480134C12.4477 0.556501 12.3658 0.734476 12.3658 0.734476C12.3658 0.734476 11.9908 1.7328 11.4907 2.58181C10.4357 4.37332 10.0138 4.46787 9.84142 4.35664C9.44034 4.09738 9.54045 3.3151 9.54045 2.75936C9.54045 1.02326 9.80377 0.29938 9.0277 0.111994C8.77015 0.0497453 8.58063 0.00867438 7.922 0.00204312C7.07662 -0.00672724 6.36108 0.00460978 5.95594 0.20312C5.68641 0.335103 5.47849 0.629231 5.60512 0.64613C5.7617 0.667093 6.11637 0.741748 6.3044 0.9978C6.54719 1.32808 6.53863 2.06992 6.53863 2.06992C6.53863 2.06992 6.6781 4.11363 6.21284 4.36755C5.89347 4.54167 5.45538 4.18615 4.51481 2.56085C4.03287 1.72831 3.66901 0.808061 3.66901 0.808061C3.66901 0.808061 3.59885 0.636076 3.47371 0.544094C3.32183 0.432646 3.10963 0.397137 3.10963 0.397137L0.858214 0.411897C0.858214 0.411897 0.520234 0.421309 0.396165 0.568266C0.285787 0.698966 0.387395 0.96935 0.387395 0.96935C0.387395 0.96935 2.15002 5.09313 4.14582 7.17128C5.97583 9.07659 8.05398 8.95145 8.05398 8.95145Z"/>
</svg>
