<svg width="13" height="10" viewBox="0 0 13 10" xmlns="http://www.w3.org/2000/svg">
<path d="M12.3445 1.12507C11.9144 1.31581 11.4517 1.44481 10.9664 1.50242C11.4619 1.20559 11.8421 0.735914 12.0215 0.175345C11.558 0.450352 11.0443 0.649852 10.498 0.757385C10.0604 0.291289 9.43681 0 8.74634 0C7.42159 0 6.34715 1.07444 6.34715 2.39919C6.34715 2.58724 6.36844 2.77028 6.40959 2.94598C4.41567 2.84596 2.64772 1.89087 1.46432 0.4389C1.25784 0.79317 1.13939 1.20559 1.13939 1.64521C1.13939 2.47738 1.56326 3.21204 2.20667 3.64218C1.81357 3.62983 1.44338 3.52194 1.12007 3.34176C1.11989 3.35196 1.11989 3.36216 1.11989 3.37218C1.11989 4.53465 1.94723 5.50424 3.04457 5.72449C2.84346 5.7796 2.63108 5.80877 2.41261 5.80877C2.25766 5.80877 2.10755 5.79392 1.96119 5.766C2.26643 6.71895 3.15228 7.41264 4.20239 7.43214C3.38113 8.07573 2.34677 8.45917 1.22241 8.45917C1.02917 8.45917 0.837724 8.44789 0.650391 8.42553C1.71159 9.10651 2.973 9.50355 4.32781 9.50355C8.74079 9.50355 11.1541 5.84777 11.1541 2.67706C11.1541 2.57311 11.1518 2.46951 11.1471 2.36681C11.6163 2.02864 12.023 1.6062 12.3445 1.12507Z"/>
</svg>
