<svg width="18" height="18" viewBox="0 0 18 18" fill="none" xmlns="http://www.w3.org/2000/svg">
<g opacity="0.4">
<path d="M16.4411 8.69976C14.9261 5.18226 12.0761 2.99976 9.00115 2.99976C5.92615 2.99976 3.07615 5.18226 1.56115 8.69976C1.51985 8.79438 1.49854 8.89651 1.49854 8.99975C1.49854 9.103 1.51985 9.20513 1.56115 9.29975C3.07615 12.8173 5.92615 14.9998 9.00115 14.9998C12.0761 14.9998 14.9261 12.8173 16.4411 9.29975C16.4824 9.20513 16.5038 9.103 16.5038 8.99975C16.5038 8.89651 16.4824 8.79438 16.4411 8.69976ZM9.00115 13.4998C6.62365 13.4998 4.37365 11.7823 3.07615 8.99975C4.37365 6.21726 6.62365 4.49976 9.00115 4.49976C11.3786 4.49976 13.6286 6.21726 14.9261 8.99975C13.6286 11.7823 11.3786 13.4998 9.00115 13.4998ZM9.00115 5.99976C8.4078 5.99976 7.82779 6.1757 7.33444 6.50535C6.84109 6.83499 6.45657 7.30353 6.22951 7.8517C6.00245 8.39988 5.94304 9.00308 6.05879 9.58503C6.17455 10.167 6.46027 10.7015 6.87983 11.1211C7.29939 11.5406 7.83393 11.8264 8.41588 11.9421C8.99782 12.0579 9.60102 11.9985 10.1492 11.7714C10.6974 11.5443 11.1659 11.1598 11.4956 10.6665C11.8252 10.1731 12.0011 9.5931 12.0011 8.99975C12.0011 8.20411 11.6851 7.44104 11.1225 6.87843C10.5599 6.31583 9.7968 5.99976 9.00115 5.99976ZM9.00115 10.4998C8.70448 10.4998 8.41447 10.4118 8.16779 10.247C7.92112 10.0821 7.72886 9.84787 7.61533 9.57378C7.5018 9.29969 7.47209 8.99809 7.52997 8.70712C7.58785 8.41615 7.73071 8.14887 7.94049 7.9391C8.15027 7.72932 8.41754 7.58645 8.70851 7.52858C8.99948 7.4707 9.30108 7.5004 9.57517 7.61394C9.84926 7.72747 10.0835 7.91973 10.2484 8.1664C10.4132 8.41307 10.5011 8.70308 10.5011 8.99975C10.5011 9.39758 10.3431 9.77911 10.0618 10.0604C9.7805 10.3417 9.39897 10.4998 9.00115 10.4998Z" fill="#292C2F"/>
</g>
</svg>
