<svg width="12" height="16" viewBox="0 0 12 16" fill="none" xmlns="http://www.w3.org/2000/svg">
<path d="M6.69 10.2499C6.67503 10.2039 6.65219 10.1607 6.6225 10.1224L6.5325 10.0099C6.46278 9.93963 6.37983 9.88383 6.28844 9.84576C6.19704 9.80768 6.09901 9.78808 6 9.78808C5.90099 9.78808 5.80297 9.80768 5.71157 9.84576C5.62018 9.88383 5.53723 9.93963 5.4675 10.0099C5.43175 10.0424 5.40137 10.0804 5.3775 10.1224C5.34782 10.1607 5.32498 10.2039 5.31 10.2499C5.28829 10.295 5.27313 10.343 5.265 10.3924C5.26133 10.4399 5.26133 10.4875 5.265 10.5349C5.2624 10.6357 5.28292 10.7358 5.325 10.8274C5.40132 11.0098 5.54658 11.1547 5.72917 11.2305C5.91176 11.3064 6.11692 11.3071 6.3 11.2324C6.39115 11.1917 6.47481 11.1359 6.5475 11.0674C6.61497 10.9983 6.66845 10.9168 6.705 10.8274C6.74441 10.7349 6.76481 10.6355 6.765 10.5349C6.76868 10.4875 6.76868 10.4399 6.765 10.3924C6.74748 10.3414 6.72218 10.2933 6.69 10.2499ZM6 4.51993C5.80109 4.51993 5.61033 4.59894 5.46967 4.7396C5.32902 4.88025 5.25 5.07101 5.25 5.26993V7.51993C5.25 7.71884 5.32902 7.9096 5.46967 8.05026C5.61033 8.19091 5.80109 8.26993 6 8.26993C6.19892 8.26993 6.38968 8.19091 6.53033 8.05026C6.67099 7.9096 6.75 7.71884 6.75 7.51993V5.26993C6.75 5.07101 6.67099 4.88025 6.53033 4.7396C6.38968 4.59894 6.19892 4.51993 6 4.51993ZM11.7225 1.73743C11.6354 1.66694 11.5336 1.61688 11.4245 1.59092C11.3155 1.56497 11.2021 1.56377 11.0925 1.58743C10.2911 1.75538 9.46376 1.75752 8.66148 1.59371C7.8592 1.4299 7.09894 1.10361 6.4275 0.634926C6.30196 0.547831 6.1528 0.50116 6 0.50116C5.8472 0.50116 5.69805 0.547831 5.5725 0.634926C4.90107 1.10361 4.14081 1.4299 3.33853 1.59371C2.53625 1.75752 1.70893 1.75538 0.907504 1.58743C0.797958 1.56377 0.684503 1.56497 0.57548 1.59092C0.466456 1.61688 0.364636 1.66694 0.277504 1.73743C0.190489 1.80801 0.120395 1.8972 0.0723735 1.99844C0.0243521 2.09967 -0.000376643 2.21038 4.33611e-06 2.32243V7.90993C-0.000662441 8.98524 0.255584 10.0451 0.747405 11.0014C1.23923 11.9576 1.95239 12.7825 2.8275 13.4074L5.565 15.3574C5.69203 15.4479 5.84408 15.4965 6 15.4965C6.15593 15.4965 6.30798 15.4479 6.435 15.3574L9.1725 13.4074C10.0476 12.7825 10.7608 11.9576 11.2526 11.0014C11.7444 10.0451 12.0007 8.98524 12 7.90993V2.32243C12.0004 2.21038 11.9757 2.09967 11.9276 1.99844C11.8796 1.8972 11.8095 1.80801 11.7225 1.73743ZM10.5 7.90993C10.5006 8.74599 10.3015 9.57011 9.91924 10.3137C9.53701 11.0573 8.98273 11.6988 8.3025 12.1849L6 13.8274L3.6975 12.1849C3.01728 11.6988 2.46299 11.0573 2.08077 10.3137C1.69854 9.57011 1.49943 8.74599 1.5 7.90993V3.18493C3.07233 3.3195 4.64703 2.95469 6 2.14243C7.35297 2.95469 8.92768 3.3195 10.5 3.18493V7.90993Z" fill="#D5443A"/>
</svg>
