<svg width="12" height="16" viewBox="0 0 12 16" fill="none" xmlns="http://www.w3.org/2000/svg">
<path d="M6.75 9.5H3.75C3.55109 9.5 3.36032 9.57902 3.21967 9.71967C3.07902 9.86032 3 10.0511 3 10.25C3 10.4489 3.07902 10.6397 3.21967 10.7803C3.36032 10.921 3.55109 11 3.75 11H6.75C6.94891 11 7.13968 10.921 7.28033 10.7803C7.42098 10.6397 7.5 10.4489 7.5 10.25C7.5 10.0511 7.42098 9.86032 7.28033 9.71967C7.13968 9.57902 6.94891 9.5 6.75 9.5ZM9.75 2H8.865C8.71027 1.56234 8.42395 1.18325 8.0453 0.914704C7.66665 0.646159 7.21421 0.501305 6.75 0.5H5.25C4.78579 0.501305 4.33335 0.646159 3.9547 0.914704C3.57605 1.18325 3.28974 1.56234 3.135 2H2.25C1.65326 2 1.08097 2.23705 0.65901 2.65901C0.237053 3.08097 0 3.65326 0 4.25V13.25C0 13.8467 0.237053 14.419 0.65901 14.841C1.08097 15.2629 1.65326 15.5 2.25 15.5H9.75C10.3467 15.5 10.919 15.2629 11.341 14.841C11.7629 14.419 12 13.8467 12 13.25V4.25C12 3.65326 11.7629 3.08097 11.341 2.65901C10.919 2.23705 10.3467 2 9.75 2ZM4.5 2.75C4.5 2.55109 4.57902 2.36032 4.71967 2.21967C4.86032 2.07902 5.05109 2 5.25 2H6.75C6.94891 2 7.13968 2.07902 7.28033 2.21967C7.42098 2.36032 7.5 2.55109 7.5 2.75V3.5H4.5V2.75ZM10.5 13.25C10.5 13.4489 10.421 13.6397 10.2803 13.7803C10.1397 13.921 9.94891 14 9.75 14H2.25C2.05109 14 1.86032 13.921 1.71967 13.7803C1.57902 13.6397 1.5 13.4489 1.5 13.25V4.25C1.5 4.05109 1.57902 3.86032 1.71967 3.71967C1.86032 3.57902 2.05109 3.5 2.25 3.5H3V4.25C3 4.44891 3.07902 4.63968 3.21967 4.78033C3.36032 4.92098 3.55109 5 3.75 5H8.25C8.44891 5 8.63968 4.92098 8.78033 4.78033C8.92098 4.63968 9 4.44891 9 4.25V3.5H9.75C9.94891 3.5 10.1397 3.57902 10.2803 3.71967C10.421 3.86032 10.5 4.05109 10.5 4.25V13.25ZM8.25 6.5H3.75C3.55109 6.5 3.36032 6.57902 3.21967 6.71967C3.07902 6.86032 3 7.05109 3 7.25C3 7.44891 3.07902 7.63968 3.21967 7.78033C3.36032 7.92098 3.55109 8 3.75 8H8.25C8.44891 8 8.63968 7.92098 8.78033 7.78033C8.92098 7.63968 9 7.44891 9 7.25C9 7.05109 8.92098 6.86032 8.78033 6.71967C8.63968 6.57902 8.44891 6.5 8.25 6.5Z" fill="#4769BE"/>
</svg>
