<svg width="24" height="24" viewBox="0 0 24 24" fill="none" xmlns="http://www.w3.org/2000/svg">
<g opacity="0.4">
<path d="M21.7101 20.2899L18.0001 16.6099C19.4402 14.8143 20.1376 12.5352 19.949 10.2412C19.7603 7.94721 18.6998 5.81269 16.9857 4.27655C15.2715 2.74041 13.034 1.91941 10.7331 1.98237C8.43219 2.04534 6.24287 2.98747 4.61529 4.61505C2.98771 6.24263 2.04558 8.43194 1.98262 10.7328C1.91966 13.0337 2.74065 15.2713 4.27679 16.9854C5.81293 18.6996 7.94745 19.76 10.2414 19.9487C12.5354 20.1374 14.8146 19.44 16.6101 17.9999L20.2901 21.6799C20.3831 21.7736 20.4937 21.848 20.6156 21.8988C20.7374 21.9496 20.8681 21.9757 21.0001 21.9757C21.1322 21.9757 21.2629 21.9496 21.3847 21.8988C21.5066 21.848 21.6172 21.7736 21.7101 21.6799C21.8904 21.4934 21.9911 21.2442 21.9911 20.9849C21.9911 20.7256 21.8904 20.4764 21.7101 20.2899ZM11.0001 17.9999C9.61568 17.9999 8.2623 17.5894 7.11116 16.8202C5.96001 16.051 5.0628 14.9578 4.53299 13.6787C4.00318 12.3996 3.86455 10.9921 4.13465 9.63427C4.40475 8.27641 5.07143 7.02913 6.0504 6.05016C7.02937 5.07119 8.27665 4.4045 9.63452 4.13441C10.9924 3.86431 12.3998 4.00293 13.6789 4.53275C14.958 5.06256 16.0513 5.95977 16.8204 7.11091C17.5896 8.26206 18.0001 9.61544 18.0001 10.9999C18.0001 12.8564 17.2626 14.6369 15.9499 15.9497C14.6371 17.2624 12.8567 17.9999 11.0001 17.9999Z" fill="#292C2F"/>
</g>
</svg>
