<svg width="14" height="16" viewBox="0 0 14 16" fill="none" xmlns="http://www.w3.org/2000/svg">
<path d="M10 14H4C3.40326 14 2.83097 13.7629 2.40901 13.341C1.98705 12.919 1.75 12.3467 1.75 11.75V4.25C1.75 4.05109 1.67098 3.86032 1.53033 3.71967C1.38968 3.57902 1.19891 3.5 1 3.5C0.801088 3.5 0.610322 3.57902 0.46967 3.71967C0.329018 3.86032 0.25 4.05109 0.25 4.25V11.75C0.25 12.7446 0.645088 13.6984 1.34835 14.4017C2.05161 15.1049 3.00544 15.5 4 15.5H10C10.1989 15.5 10.3897 15.421 10.5303 15.2803C10.671 15.1397 10.75 14.9489 10.75 14.75C10.75 14.5511 10.671 14.3603 10.5303 14.2197C10.3897 14.079 10.1989 14 10 14ZM5.5 8.75C5.5 8.94891 5.57902 9.13968 5.71967 9.28033C5.86032 9.42098 6.05109 9.5 6.25 9.5H10C10.1989 9.5 10.3897 9.42098 10.5303 9.28033C10.671 9.13968 10.75 8.94891 10.75 8.75C10.75 8.55109 10.671 8.36032 10.5303 8.21967C10.3897 8.07902 10.1989 8 10 8H6.25C6.05109 8 5.86032 8.07902 5.71967 8.21967C5.57902 8.36032 5.5 8.55109 5.5 8.75ZM13.75 5.705C13.7422 5.6361 13.7271 5.56822 13.705 5.5025V5.435C13.6689 5.35789 13.6208 5.287 13.5625 5.225L9.0625 0.725C9.0005 0.666662 8.92962 0.618561 8.8525 0.5825C8.83011 0.57932 8.80739 0.57932 8.785 0.5825C8.70881 0.538806 8.62467 0.510758 8.5375 0.5H5.5C4.90326 0.5 4.33097 0.737053 3.90901 1.15901C3.48705 1.58097 3.25 2.15326 3.25 2.75V10.25C3.25 10.8467 3.48705 11.419 3.90901 11.841C4.33097 12.2629 4.90326 12.5 5.5 12.5H11.5C12.0967 12.5 12.669 12.2629 13.091 11.841C13.5129 11.419 13.75 10.8467 13.75 10.25V5.75C13.75 5.75 13.75 5.75 13.75 5.705ZM9.25 3.0575L11.1925 5H10C9.80109 5 9.61032 4.92098 9.46967 4.78033C9.32902 4.63968 9.25 4.44891 9.25 4.25V3.0575ZM12.25 10.25C12.25 10.4489 12.171 10.6397 12.0303 10.7803C11.8897 10.921 11.6989 11 11.5 11H5.5C5.30109 11 5.11032 10.921 4.96967 10.7803C4.82902 10.6397 4.75 10.4489 4.75 10.25V2.75C4.75 2.55109 4.82902 2.36032 4.96967 2.21967C5.11032 2.07902 5.30109 2 5.5 2H7.75V4.25C7.75203 4.50586 7.79768 4.75949 7.885 5H6.25C6.05109 5 5.86032 5.07902 5.71967 5.21967C5.57902 5.36032 5.5 5.55109 5.5 5.75C5.5 5.94891 5.57902 6.13968 5.71967 6.28033C5.86032 6.42098 6.05109 6.5 6.25 6.5H12.25V10.25Z" fill="#68981A"/>
</svg>
