<svg width="164" height="75" viewBox="0 0 164 75" fill="none" xmlns="http://www.w3.org/2000/svg">
<path d="M158.092 17.6254V21.087H159.063C160.439 21.087 161.086 20.5235 161.086 19.316C161.086 18.189 160.439 17.6254 159.063 17.6254H158.092ZM158.092 23.0191V26.8832H155.584V15.6934H159.549C162.381 15.6934 163.757 16.9009 163.757 19.2355C163.757 20.3625 163.352 21.2481 162.543 21.9726C161.734 22.6971 160.682 23.0191 159.306 23.0191H158.092ZM153.156 17.7059H149.919V26.8027H147.41V17.7059H144.254V15.6934H153.156V17.7059ZM142.393 26.4807C141.584 26.8832 140.532 27.0442 139.156 27.0442C137.457 27.0442 136.081 26.5612 135.11 25.5146C134.139 24.4681 133.653 23.1801 133.653 21.4896C133.653 19.7185 134.22 18.2695 135.353 17.1425C136.486 16.0154 137.942 15.4519 139.642 15.4519C140.774 15.4519 141.665 15.6129 142.393 15.8544V18.2695C141.665 17.7865 140.775 17.6254 139.803 17.6254C138.751 17.6254 137.861 17.9475 137.214 18.5915C136.566 19.2355 136.243 20.121 136.243 21.248C136.243 22.2946 136.566 23.1801 137.133 23.8241C137.78 24.4681 138.59 24.7901 139.561 24.7901C140.532 24.7901 141.422 24.5486 142.231 24.0656V26.4807H142.393ZM131.711 26.8832H124.994V15.6934H131.468V17.7059H127.503V20.2015H131.145V22.2141H127.503V24.7901H131.711V26.8832ZM122.243 26.8832H115.526V15.6934H122V17.7059H118.035V20.2015H121.676V22.2141H118.035V24.7901H122.243V26.8832ZM107.272 17.6254V21.087H108.243C109.619 21.087 110.266 20.5235 110.266 19.316C110.266 18.189 109.619 17.6254 108.243 17.6254H107.272ZM107.272 23.0191V26.8832H104.763V15.6934H108.729C111.561 15.6934 112.937 16.9009 112.937 19.2355C112.937 20.3625 112.532 21.2481 111.723 21.9726C110.914 22.6971 109.862 23.0191 108.486 23.0191H107.272ZM101.931 26.4807C101.122 26.8832 100.07 27.0442 98.6941 27.0442C96.9947 27.0442 95.619 26.5612 94.6479 25.5146C93.6768 24.4681 93.1913 23.1801 93.1913 21.4896C93.1913 19.7185 93.7577 18.2695 94.8907 17.1425C96.0236 16.0154 97.4802 15.4519 99.1796 15.4519C100.313 15.4519 101.203 15.6129 101.931 15.8544V18.2695C101.203 17.7865 100.313 17.6254 99.3415 17.6254C98.2895 17.6254 97.3993 17.9475 96.7519 18.5915C96.1045 19.2355 95.7808 20.121 95.7808 21.248C95.7808 22.2946 96.1045 23.1801 96.671 23.8241C97.3184 24.4681 98.1276 24.7901 99.0987 24.7901C100.07 24.7901 100.96 24.5486 101.769 24.0656V26.4807H101.931ZM85.6653 17.7059C84.7752 17.7059 84.0469 18.028 83.5613 18.672C83.0758 19.316 82.7521 20.2015 82.7521 21.3285C82.7521 22.4556 82.9949 23.3411 83.5613 23.9851C84.0469 24.6291 84.7752 24.9511 85.5844 24.9511C86.4746 24.9511 87.122 24.6291 87.6884 23.9851C88.174 23.3411 88.4168 22.4556 88.4168 21.409C88.4168 20.282 88.174 19.316 87.6884 18.672C87.2029 18.028 86.5555 17.7059 85.6653 17.7059ZM85.5844 27.0442C83.966 27.0442 82.6712 26.5612 81.6191 25.5146C80.5671 24.4681 80.0816 23.0996 80.0816 21.409C80.0816 19.638 80.5671 18.189 81.6191 17.1425C82.6712 16.0154 84.0469 15.5324 85.6653 15.5324C87.2838 15.5324 88.5786 16.0959 89.5497 17.0619C90.5208 18.1085 91.0063 19.477 91.0063 21.1675C91.0063 22.9386 90.5208 24.3071 89.4688 25.4341C88.5786 26.5612 87.2029 27.0442 85.5844 27.0442ZM72.6366 17.6254V21.087H73.6076C74.9834 21.087 75.6307 20.5235 75.6307 19.316C75.6307 18.189 74.9834 17.6254 73.6076 17.6254H72.6366ZM72.6366 23.0191V26.8832H70.1279V15.6934H74.0932C76.9256 15.6934 78.3013 16.9009 78.3013 19.2355C78.3013 20.3625 77.8967 21.2481 77.0874 21.9726C76.2782 22.6971 75.2262 23.0191 73.8505 23.0191H72.6366Z" fill="#2E3032"/>
<path d="M124.185 46.445H122.89V49.3431H122.324V45.962H124.185V46.445ZM119.815 46.3645C119.492 46.3645 119.168 46.445 119.006 46.6865C118.844 46.928 118.682 47.2501 118.682 47.6526C118.682 48.0551 118.763 48.3771 119.006 48.6186C119.249 48.8601 119.492 48.9406 119.815 48.9406C120.139 48.9406 120.463 48.8601 120.625 48.6186C120.786 48.3771 120.867 48.0551 120.867 47.6526C120.867 47.2501 120.786 46.928 120.625 46.6865C120.463 46.445 120.139 46.3645 119.815 46.3645ZM119.815 49.4236C119.33 49.4236 118.925 49.2626 118.601 48.9406C118.278 48.6186 118.116 48.2161 118.116 47.6526C118.116 47.0891 118.278 46.606 118.601 46.284C118.925 45.962 119.33 45.801 119.896 45.801C120.382 45.801 120.786 45.962 121.11 46.284C121.353 46.606 121.515 47.0085 121.515 47.5721C121.515 48.1356 121.353 48.5381 121.029 48.8601C120.705 49.2626 120.301 49.4236 119.815 49.4236ZM117.873 46.445H116.902V49.3431H116.336V46.445H115.284V45.962H117.873V46.445ZM112.451 47.4916V47.9746C112.451 48.2161 112.532 48.4576 112.694 48.6991C112.856 48.8601 113.099 49.0211 113.422 49.0211C113.746 49.0211 113.989 48.8601 114.232 48.6186C114.393 48.3771 114.474 48.0551 114.474 47.5721C114.474 47.1696 114.393 46.928 114.232 46.6865C114.07 46.445 113.827 46.3645 113.503 46.3645C113.18 46.3645 112.937 46.445 112.775 46.6865C112.532 46.928 112.451 47.1695 112.451 47.4916ZM112.451 48.8601V50.8726H111.885V45.8815H112.451V46.445C112.694 45.962 113.099 45.801 113.584 45.801C113.989 45.801 114.393 45.962 114.636 46.284C114.879 46.606 115.041 47.0085 115.041 47.4916C115.041 48.0551 114.879 48.5381 114.636 48.8601C114.393 49.1821 113.989 49.3431 113.503 49.3431C113.018 49.4236 112.694 49.2626 112.451 48.8601ZM110.347 47.6526L109.538 47.7331C109.295 47.7331 109.133 47.8136 108.972 47.8941C108.81 47.9746 108.81 48.1356 108.81 48.3771C108.81 48.5381 108.891 48.6991 108.972 48.7796C109.052 48.8601 109.214 48.9406 109.457 48.9406C109.7 48.9406 109.943 48.8601 110.104 48.6186C110.266 48.4576 110.347 48.2161 110.347 47.8941V47.6526ZM110.833 49.3431H110.266V48.7796C110.024 49.1821 109.7 49.4236 109.214 49.4236C108.891 49.4236 108.648 49.3431 108.405 49.1821C108.243 49.0211 108.081 48.7796 108.081 48.4576C108.081 47.8136 108.486 47.4916 109.214 47.3306L110.185 47.1696C110.185 46.606 109.943 46.284 109.457 46.284C109.052 46.284 108.648 46.445 108.324 46.6865V46.123C108.648 45.8815 109.052 45.801 109.457 45.801C110.266 45.801 110.671 46.2035 110.671 47.089V49.3431H110.833ZM107.92 49.3431H107.191L105.735 47.7331V49.3431H105.168V45.962H105.735V47.4916L107.191 45.962H107.92L106.382 47.5721L107.92 49.3431ZM102.174 49.3431H101.688V46.606C101.607 46.6865 101.607 46.8475 101.446 47.0085L99.908 49.3431H99.3416V45.962H99.8271V48.6186C99.8271 48.5381 99.9081 48.4576 99.989 48.2966L101.607 45.962H102.174V49.3431ZM95.9428 47.6526L95.1335 47.7331C94.8908 47.7331 94.7289 47.8136 94.5671 47.8941C94.4052 47.9746 94.4052 48.1356 94.4052 48.3771C94.4052 48.5381 94.4861 48.6991 94.5671 48.7796C94.648 48.8601 94.8098 48.9406 95.0526 48.9406C95.2954 48.9406 95.5382 48.8601 95.7 48.6186C95.8619 48.4576 95.9428 48.2161 95.9428 47.8941V47.6526ZM96.4283 49.3431H95.8618V48.7796C95.6191 49.1821 95.2954 49.4236 94.8098 49.4236C94.4861 49.4236 94.2434 49.3431 94.0006 49.1821C93.8387 49.0211 93.6769 48.7796 93.6769 48.4576C93.6769 47.8136 94.0815 47.4916 94.8098 47.3306L95.7809 47.1696C95.7809 46.606 95.5381 46.284 95.0526 46.284C94.648 46.284 94.2434 46.445 93.9197 46.6865V46.123C94.2434 45.8815 94.648 45.801 95.0526 45.801C95.8618 45.801 96.2665 46.2035 96.2665 47.089V49.3431H96.4283ZM90.6827 47.4916V47.9746C90.6827 48.2161 90.7636 48.4576 90.9255 48.6991C91.0873 48.8601 91.3301 49.0211 91.6538 49.0211C91.9775 49.0211 92.2203 48.8601 92.3821 48.6186C92.544 48.3771 92.6249 48.0551 92.6249 47.5721C92.6249 47.1696 92.544 46.928 92.3821 46.6865C92.2203 46.445 91.9775 46.3645 91.6538 46.3645C91.3301 46.3645 91.0873 46.445 90.9255 46.6865C90.7636 46.928 90.6827 47.1695 90.6827 47.4916ZM90.6827 48.8601V50.8726H90.1163V45.8815H90.6827V46.445C90.9255 45.962 91.3301 45.801 91.8156 45.801C92.2203 45.801 92.6249 45.962 92.8677 46.284C93.1105 46.606 93.2723 47.0085 93.2723 47.4916C93.2723 48.0551 93.1105 48.5381 92.8677 48.8601C92.6249 49.1821 92.2203 49.3431 91.7347 49.3431C91.3301 49.4236 90.9255 49.2626 90.6827 48.8601ZM89.5498 46.445H88.4978V49.3431H87.9313V46.445H86.8793V45.962H89.4689V46.445H89.5498ZM86.5556 49.2626C86.3128 49.4236 85.9891 49.5041 85.6654 49.5041C85.1799 49.5041 84.7753 49.3431 84.5325 49.0211C84.2088 48.6991 84.1279 48.2966 84.1279 47.8136C84.1279 47.25 84.2897 46.767 84.6134 46.445C84.9371 46.123 85.3417 45.962 85.9082 45.962C86.2319 45.962 86.4747 46.0425 86.7174 46.123V46.6865C86.4747 46.5255 86.2319 46.445 85.9082 46.445C85.5845 46.445 85.2608 46.606 85.099 46.8475C84.8562 47.0891 84.7753 47.411 84.7753 47.8136C84.7753 48.2161 84.8562 48.5381 85.099 48.7796C85.3417 49.0211 85.5845 49.1016 85.9082 49.1016C86.2319 49.1016 86.4747 49.0211 86.7174 48.7796V49.2626H86.5556ZM82.7522 47.6526L81.943 47.7331C81.7002 47.7331 81.5383 47.8136 81.3765 47.8941C81.2146 47.9746 81.2146 48.1356 81.2146 48.3771C81.2146 48.5381 81.2956 48.6991 81.3765 48.7796C81.4574 48.8601 81.6192 48.9406 81.862 48.9406C82.1048 48.9406 82.3475 48.8601 82.5094 48.6186C82.6712 48.4576 82.7522 48.2161 82.7522 47.8941V47.6526ZM83.2377 49.3431H82.6712V48.7796C82.4285 49.1821 82.1048 49.4236 81.6192 49.4236C81.2955 49.4236 81.0528 49.3431 80.81 49.1821C80.6482 49.0211 80.4863 48.7796 80.4863 48.4576C80.4863 47.8136 80.8909 47.4916 81.6192 47.3306L82.5903 47.1696C82.5903 46.606 82.3475 46.284 81.862 46.284C81.4574 46.284 81.0528 46.445 80.7291 46.6865V46.123C81.0528 45.8815 81.4574 45.801 81.862 45.801C82.6712 45.801 83.0759 46.2035 83.0759 47.089V49.3431H83.2377ZM79.0297 48.9406V46.445H78.3014C78.2205 47.3306 77.9777 48.2161 77.573 48.9406H79.0297ZM79.5961 50.6311V49.4236H77.1684V50.6311H76.6829V48.9406H77.0066C77.573 48.1356 77.8968 47.0891 77.8968 46.0425H79.677V48.9406H80.1626V50.6311H79.5961ZM75.6308 47.6526L74.8216 47.7331C74.5788 47.7331 74.417 47.8136 74.2552 47.8941C74.0933 47.9746 74.0933 48.1356 74.0933 48.3771C74.0933 48.5381 74.1743 48.6991 74.2552 48.7796C74.3361 48.8601 74.4979 48.9406 74.7407 48.9406C74.9835 48.9406 75.2262 48.8601 75.3881 48.6186C75.5499 48.4576 75.6308 48.2161 75.6308 47.8941V47.6526ZM76.1164 49.3431H75.5499V48.7796C75.3072 49.1821 74.9835 49.4236 74.4979 49.4236C74.1742 49.4236 73.9315 49.3431 73.6887 49.1821C73.5269 49.0211 73.365 48.7796 73.365 48.4576C73.365 47.8136 73.7696 47.4916 74.4979 47.3306L75.469 47.1696C75.469 46.606 75.2262 46.284 74.7407 46.284C74.3361 46.284 73.9314 46.445 73.6078 46.6865V46.123C73.9314 45.8815 74.3361 45.801 74.7407 45.801C75.5499 45.801 75.9546 46.2035 75.9546 47.089V49.3431H76.1164ZM73.2031 49.3431H72.4748L71.0182 47.7331V49.3431H70.4517V45.962H71.0182V47.4916L72.3939 45.962H73.1222L71.5847 47.5721L73.2031 49.3431ZM164 41.4539L163.433 43.0639H163.029L163.433 41.4539H164ZM162.381 42.1784H161.896V39.4414C161.815 39.5219 161.815 39.6829 161.653 39.8439L160.115 42.1784H159.549V38.7974H160.035V41.4539C160.035 41.3734 160.115 41.2929 160.196 41.1319L161.815 38.7974H162.381V42.1784ZM158.497 42.1784H158.011V39.4414C157.931 39.5219 157.85 39.6829 157.769 39.8439L156.231 42.1784H155.665V38.7974H156.15V41.4539C156.15 41.3734 156.231 41.2929 156.312 41.1319L157.931 38.7974H158.497V42.1784ZM154.855 43.4665H154.37V42.2589H151.538V38.8779H152.104V41.7759H153.803V38.8779H154.37V41.7759H154.855V43.4665ZM150 40.4879L149.191 40.5684C148.948 40.5684 148.786 40.6489 148.624 40.7294C148.462 40.8099 148.462 40.9709 148.462 41.2124C148.462 41.3734 148.543 41.5344 148.624 41.6149C148.705 41.6954 148.867 41.7759 149.11 41.7759C149.353 41.7759 149.595 41.6954 149.757 41.4539C149.919 41.2929 150 41.0514 150 40.7294V40.4879ZM150.566 42.1784H150V41.6149C149.757 42.0174 149.433 42.2589 148.948 42.2589C148.624 42.2589 148.381 42.1784 148.139 42.0174C147.977 41.8564 147.815 41.6149 147.815 41.2929C147.815 40.6489 148.22 40.3269 148.948 40.1659L149.919 40.0049C149.919 39.4414 149.676 39.1194 149.191 39.1194C148.786 39.1194 148.381 39.2804 148.058 39.5219V38.9583C148.381 38.7168 148.786 38.6363 149.191 38.6363C150 38.6363 150.405 39.0389 150.405 39.9244V42.1784H150.566ZM144.821 40.3269V40.8099C144.821 41.1319 144.902 41.2929 145.064 41.5344C145.225 41.6954 145.468 41.8564 145.792 41.8564C146.116 41.8564 146.358 41.6954 146.601 41.4539C146.763 41.2124 146.844 40.8904 146.844 40.4074C146.844 40.0049 146.763 39.7634 146.601 39.5219C146.439 39.2804 146.197 39.1999 145.873 39.1999C145.549 39.1999 145.306 39.2804 145.145 39.5219C144.902 39.7634 144.821 40.0049 144.821 40.3269ZM144.821 41.6954V43.7885H144.254V38.7974H144.821V39.3609C145.064 38.8778 145.468 38.7168 145.954 38.7168C146.358 38.7168 146.763 38.8779 147.006 39.1999C147.249 39.5219 147.41 39.9244 147.41 40.4074C147.41 40.9709 147.249 41.4539 147.006 41.7759C146.763 42.0979 146.358 42.2589 145.873 42.2589C145.387 42.2589 145.064 42.0979 144.821 41.6954ZM143.607 39.2804H142.636V42.1784H142.069V39.2804H141.017V38.7974H143.607V39.2804ZM140.694 42.0174C140.451 42.1784 140.127 42.2589 139.804 42.2589C139.318 42.2589 138.913 42.0979 138.671 41.7759C138.347 41.4539 138.266 41.0514 138.266 40.5684C138.266 40.0049 138.428 39.5219 138.752 39.1999C139.075 38.8779 139.48 38.7168 140.046 38.7168C140.37 38.7168 140.613 38.7974 140.856 38.8779V39.4414C140.613 39.2804 140.37 39.1999 140.046 39.1999C139.723 39.1999 139.399 39.3609 139.237 39.6024C138.994 39.8439 138.913 40.1659 138.913 40.5684C138.913 40.9709 138.994 41.2929 139.237 41.5344C139.48 41.7759 139.723 41.8564 140.046 41.8564C140.37 41.8564 140.613 41.7759 140.856 41.5344V42.0174H140.694ZM137.295 42.1784H136.809V39.4414C136.728 39.5219 136.728 39.6829 136.567 39.8439L135.029 42.1784H134.463V38.7974H134.948V41.4539C134.948 41.3734 135.029 41.2929 135.11 41.1319L136.728 38.7974H137.295V42.1784ZM133.734 39.2804H132.44V42.1784H131.873V38.7974H133.734V39.2804ZM130.497 40.1659C130.497 39.8439 130.416 39.6024 130.255 39.4414C130.093 39.2804 129.931 39.1999 129.607 39.1999C129.364 39.1999 129.122 39.2804 128.96 39.4414C128.798 39.6024 128.636 39.8439 128.636 40.1659H130.497ZM128.717 40.6489C128.717 41.0514 128.798 41.2929 129.041 41.5344C129.202 41.7759 129.526 41.8564 129.85 41.8564C130.255 41.8564 130.578 41.6954 130.902 41.4539V41.9369C130.578 42.1784 130.174 42.2589 129.688 42.2589C129.203 42.2589 128.798 42.0979 128.555 41.7759C128.312 41.4539 128.151 41.0514 128.151 40.4879C128.151 39.9244 128.312 39.5219 128.636 39.1999C128.96 38.8779 129.283 38.7168 129.769 38.7168C130.174 38.7168 130.578 38.8779 130.821 39.1194C131.064 39.4414 131.145 39.8439 131.145 40.3269V40.6489H128.717ZM124.914 40.3269V40.8099C124.914 41.1319 124.995 41.2929 125.156 41.5344C125.318 41.6954 125.561 41.8564 125.885 41.8564C126.208 41.8564 126.451 41.6954 126.694 41.4539C126.856 41.2124 126.937 40.8904 126.937 40.4074C126.937 40.0049 126.856 39.7634 126.694 39.5219C126.532 39.2804 126.289 39.1999 125.966 39.1999C125.642 39.1999 125.399 39.2804 125.237 39.5219C124.994 39.7634 124.914 40.0049 124.914 40.3269ZM124.914 41.6954V43.7885H124.347V38.7974H124.914V39.3609C125.156 38.8778 125.561 38.7168 126.047 38.7168C126.451 38.7168 126.856 38.8779 127.098 39.1999C127.341 39.5219 127.422 39.9244 127.422 40.4074C127.422 40.9709 127.26 41.4539 127.018 41.7759C126.775 42.0979 126.37 42.2589 125.885 42.2589C125.561 42.2589 125.156 42.0979 124.914 41.6954ZM121.272 37.1873C121.272 37.5093 121.11 37.7508 120.867 37.9118C120.625 38.0728 120.382 38.1533 120.058 38.1533C119.734 38.1533 119.411 38.0728 119.249 37.9118C119.006 37.7508 118.925 37.5093 118.925 37.1873H119.492C119.492 37.5898 119.734 37.8313 120.139 37.8313C120.301 37.8313 120.463 37.7508 120.544 37.6703C120.625 37.5898 120.706 37.4288 120.786 37.1873H121.272ZM121.434 42.1784H120.948V39.4414C120.867 39.5219 120.867 39.6829 120.706 39.8439L119.168 42.1784H118.601V38.7974H119.087V41.4539C119.087 41.3734 119.168 41.2929 119.249 41.1319L120.867 38.7974H121.434V42.1784ZM116.093 39.1999C115.769 39.1999 115.445 39.2804 115.284 39.5219C115.122 39.7634 114.96 40.0854 114.96 40.4879C114.96 40.8904 115.041 41.2124 115.284 41.4539C115.526 41.6954 115.769 41.7759 116.093 41.7759C116.417 41.7759 116.74 41.6954 116.902 41.4539C117.064 41.2124 117.145 40.8904 117.145 40.4879C117.145 40.0854 117.064 39.7634 116.902 39.5219C116.74 39.2804 116.497 39.1999 116.093 39.1999ZM116.093 42.2589C115.607 42.2589 115.203 42.0979 114.879 41.7759C114.555 41.4539 114.393 41.0514 114.393 40.4879C114.393 39.9244 114.555 39.4414 114.879 39.1194C115.203 38.7973 115.607 38.6363 116.174 38.6363C116.659 38.6363 117.064 38.7973 117.388 39.1194C117.63 39.4414 117.792 39.8439 117.792 40.4074C117.792 40.9709 117.63 41.3734 117.307 41.6954C116.983 42.0979 116.578 42.2589 116.093 42.2589ZM113.584 42.1784H113.018V40.6489H111.318V42.1784H110.752V38.7974H111.318V40.1659H113.018V38.7974H113.584V42.1784ZM109.7 42.1784H109.133V40.6489H107.434V42.1784H106.868V38.7974H107.434V40.1659H109.133V38.7974H109.7V42.1784ZM105.492 40.1659C105.492 39.8439 105.411 39.6024 105.249 39.4414C105.087 39.2804 104.925 39.1999 104.602 39.1999C104.359 39.1999 104.116 39.2804 103.954 39.4414C103.792 39.6024 103.631 39.8439 103.631 40.1659H105.492ZM103.711 40.6489C103.711 41.0514 103.792 41.2929 104.035 41.5344C104.197 41.7759 104.521 41.8564 104.844 41.8564C105.249 41.8564 105.573 41.6954 105.896 41.4539V41.9369C105.573 42.1784 105.168 42.2589 104.683 42.2589C104.197 42.2589 103.792 42.0979 103.55 41.7759C103.307 41.4539 103.145 41.0514 103.145 40.4879C103.145 39.9244 103.307 39.5219 103.631 39.1999C103.954 38.8779 104.278 38.7168 104.763 38.7168C105.168 38.7168 105.573 38.8779 105.816 39.1194C106.058 39.4414 106.139 39.8439 106.139 40.3269V40.6489H103.711ZM100.313 40.6489V41.6954H101.284C101.688 41.6954 101.931 41.5344 101.931 41.1319C101.931 40.8099 101.688 40.6489 101.203 40.6489H100.313ZM100.313 39.2804V40.2464H101.122C101.527 40.2464 101.769 40.0854 101.769 39.7634C101.769 39.4414 101.607 39.2804 101.203 39.2804H100.313ZM99.7462 38.7974H101.203C101.527 38.7974 101.769 38.8778 102.012 39.0388C102.255 39.1999 102.336 39.3609 102.336 39.6829C102.336 40.0854 102.093 40.4074 101.688 40.4879C102.174 40.5684 102.498 40.8099 102.498 41.2929C102.498 41.5344 102.417 41.7759 102.174 42.0174C101.931 42.1784 101.688 42.3394 101.365 42.3394H99.7462V38.7974ZM99.0988 39.2804H98.1277V42.1784H97.5613V39.2804H96.5093V38.7974H99.0988V39.2804ZM96.1856 42.0174C95.9428 42.1784 95.6191 42.2589 95.2954 42.2589C94.8099 42.2589 94.4052 42.0979 94.1625 41.7759C93.8388 41.4539 93.7578 41.0514 93.7578 40.5684C93.7578 40.0049 93.9197 39.5219 94.2434 39.1999C94.5671 38.8779 94.9717 38.7168 95.5382 38.7168C95.8619 38.7168 96.1046 38.7974 96.3474 38.8779V39.4414C96.1046 39.2804 95.8619 39.1999 95.5382 39.1999C95.2145 39.1999 94.8908 39.3609 94.7289 39.6024C94.4862 39.8439 94.4052 40.1659 94.4052 40.5684C94.4052 40.9709 94.4862 41.2929 94.7289 41.5344C94.9717 41.7759 95.2145 41.8564 95.5382 41.8564C95.8619 41.8564 96.1046 41.7759 96.3474 41.5344V42.0174H96.1856ZM90.44 40.3269V40.8099C90.44 41.1319 90.5209 41.2929 90.6827 41.5344C90.8446 41.6954 91.0873 41.8564 91.411 41.8564C91.7347 41.8564 91.9775 41.6954 92.2203 41.4539C92.3821 41.2124 92.4631 40.8904 92.4631 40.4074C92.4631 40.0049 92.3821 39.7634 92.2203 39.5219C92.0584 39.2804 91.8157 39.1999 91.492 39.1999C91.1683 39.1999 90.9255 39.2804 90.7636 39.5219C90.6018 39.7634 90.44 40.0049 90.44 40.3269ZM90.44 41.6954V43.7885H89.8735V38.7974H90.44V39.3609C90.6827 38.8778 91.0873 38.7168 91.5729 38.7168C91.9775 38.7168 92.3821 38.8779 92.6249 39.1999C92.8676 39.5219 93.0295 39.9244 93.0295 40.4074C93.0295 40.9709 92.8676 41.4539 92.6249 41.7759C92.3821 42.0979 91.9775 42.2589 91.492 42.2589C91.0874 42.2589 90.6827 42.0979 90.44 41.6954ZM88.3359 40.4879L87.5267 40.5684C87.2839 40.5684 87.122 40.6489 86.9602 40.7294C86.7984 40.8099 86.7984 40.9709 86.7984 41.2124C86.7984 41.3734 86.8793 41.5344 86.9602 41.6149C87.0411 41.6954 87.203 41.7759 87.4458 41.7759C87.6885 41.7759 87.9313 41.6954 88.0932 41.4539C88.255 41.2929 88.3359 41.0514 88.3359 40.7294V40.4879ZM88.9024 42.1784H88.3359V41.6149C88.0931 42.0174 87.7695 42.2589 87.2839 42.2589C86.9602 42.2589 86.7174 42.1784 86.4747 42.0174C86.3128 41.8564 86.151 41.6149 86.151 41.2929C86.151 40.6489 86.5556 40.3269 87.2839 40.1659L88.255 40.0049C88.255 39.4414 88.0122 39.1194 87.5267 39.1194C87.1221 39.1194 86.7175 39.2804 86.3938 39.5219V38.9583C86.7175 38.7168 87.1221 38.6363 87.5267 38.6363C88.3359 38.6363 88.7405 39.0389 88.7405 39.9244V42.1784H88.9024ZM84.6943 41.6954H83.1568C83.6424 40.9709 83.8851 40.1659 83.8851 39.1999H84.6134V41.6954H84.6943ZM85.7463 43.4665V41.7759H85.2608V38.8779H83.4805C83.4805 40.0049 83.1568 40.9709 82.5903 41.7759H82.2666V43.4665H82.7522V42.2589H85.2608V43.4665H85.7463ZM82.5903 38.7974L81.0528 42.7419C80.81 43.4665 80.4054 43.7885 79.9199 43.7885C79.758 43.7885 79.6771 43.7885 79.5961 43.708V43.225C79.6771 43.3055 79.8389 43.3055 79.9199 43.3055C80.1626 43.3055 80.4054 43.1445 80.5672 42.8225L80.81 42.1784L79.5152 38.7974H80.0817L80.9719 41.3734C80.9719 41.3734 80.9718 41.4539 81.0528 41.6149C81.0528 41.5344 81.0528 41.4539 81.1337 41.3734L82.1048 38.7168H82.5903V38.7974ZM79.1106 42.0174C78.8678 42.1784 78.5441 42.2589 78.2204 42.2589C77.7349 42.2589 77.3303 42.0979 77.0875 41.7759C76.7638 41.4539 76.6829 41.0514 76.6829 40.5684C76.6829 40.0049 76.8447 39.5219 77.1684 39.1999C77.4921 38.8779 77.8967 38.7168 78.4632 38.7168C78.7869 38.7168 79.0297 38.7974 79.2724 38.8779V39.4414C79.0297 39.2804 78.7869 39.1999 78.4632 39.1999C78.1395 39.1999 77.8158 39.3609 77.6539 39.6024C77.4112 39.8439 77.3303 40.1659 77.3303 40.5684C77.3303 40.9709 77.4112 41.2929 77.6539 41.5344C77.8967 41.7759 78.1395 41.8564 78.4632 41.8564C78.7869 41.8564 79.0297 41.7759 79.2724 41.5344V42.0174H79.1106ZM74.2552 39.1999C73.9315 39.1999 73.6078 39.2804 73.4459 39.5219C73.2841 39.7634 73.1222 40.0854 73.1222 40.4879C73.1222 40.8904 73.2032 41.2124 73.4459 41.4539C73.6887 41.6954 73.9315 41.7759 74.2552 41.7759C74.5789 41.7759 74.9026 41.6954 75.0644 41.4539C75.2263 41.2124 75.3072 40.8904 75.3072 40.4879C75.3072 40.0854 75.2263 39.7634 75.0644 39.5219C74.9026 39.2804 74.6598 39.1999 74.2552 39.1999ZM74.2552 42.2589C73.7696 42.2589 73.365 42.0979 73.0413 41.7759C72.7176 41.4539 72.5557 41.0514 72.5557 40.4879C72.5557 39.9244 72.7176 39.4414 73.0413 39.1194C73.365 38.7973 73.7696 38.6363 74.3361 38.6363C74.8216 38.6363 75.2262 38.7973 75.5499 39.1194C75.7927 39.4414 75.9546 39.8439 75.9546 40.4074C75.9546 40.9709 75.7927 41.3734 75.469 41.6954C75.1453 42.0979 74.7407 42.2589 74.2552 42.2589ZM72.2321 39.2804H70.9373V42.1784H70.3708V38.7974H72.2321V39.2804ZM133.653 33.3232L132.844 33.4037C132.601 33.4037 132.439 33.4842 132.278 33.5647C132.116 33.6452 132.116 33.8062 132.116 34.0477C132.116 34.2087 132.197 34.3698 132.278 34.4503C132.359 34.5308 132.52 34.6112 132.763 34.6112C133.006 34.6112 133.249 34.5307 133.411 34.2892C133.572 34.1282 133.653 33.8867 133.653 33.5647V33.3232ZM134.139 35.0138H133.572V34.4503C133.33 34.8528 133.006 35.0943 132.52 35.0943C132.197 35.0943 131.954 35.0138 131.711 34.8528C131.549 34.6918 131.387 34.4502 131.387 34.1282C131.387 33.4842 131.792 33.1622 132.52 33.0012L133.491 32.8402C133.491 32.2767 133.249 31.9547 132.763 31.9547C132.359 31.9547 131.954 32.1157 131.63 32.3572V31.8742C131.954 31.6327 132.359 31.5522 132.763 31.5522C133.572 31.5522 133.977 31.9547 133.977 32.8402V35.0138H134.139ZM128.231 32.8402V33.3232C128.231 33.4842 128.231 33.6452 128.312 33.8062C128.393 33.9672 128.474 34.1282 128.555 34.2892C128.636 34.4502 128.798 34.5307 128.879 34.6112C129.041 34.6917 129.122 34.6917 129.283 34.6917C129.607 34.6917 129.85 34.6113 130.012 34.3697C130.174 34.1282 130.255 33.8867 130.255 33.4842C130.255 33.0817 130.174 32.7597 129.931 32.5182C129.769 32.2767 129.445 32.1962 129.122 32.1962C128.798 32.1157 128.474 32.3572 128.231 32.8402ZM130.416 29.9421V30.4252C130.335 30.5057 130.174 30.5056 130.012 30.5861C129.526 30.6666 129.203 30.7472 128.96 30.8277C128.798 30.9082 128.636 31.0692 128.474 31.3107C128.312 31.5522 128.231 31.8742 128.231 32.2767C128.474 31.8742 128.879 31.7132 129.364 31.7132C129.85 31.7132 130.174 31.8742 130.416 32.1962C130.659 32.5182 130.821 32.9207 130.821 33.4037C130.821 33.8867 130.659 34.3697 130.416 34.6917C130.093 35.0138 129.769 35.1748 129.283 35.1748C128.798 35.1748 128.393 35.0138 128.07 34.6112C127.827 34.2087 127.665 33.7257 127.665 33.0012C127.665 32.4377 127.746 32.0352 127.827 31.6327C127.908 31.2302 128.07 30.9887 128.231 30.8277C128.393 30.6667 128.636 30.5057 128.798 30.4252C129.041 30.3447 129.364 30.2641 129.931 30.1836C130.174 30.0226 130.335 30.0226 130.416 29.9421ZM127.26 35.0138H126.532L124.994 33.3232V35.0138H124.509V33.3232L122.971 35.0138H122.243L123.943 33.2427L122.405 31.6327H123.052L124.509 33.2427V31.6327H124.994V33.2427L126.451 31.6327H127.179L125.561 33.2427L127.26 35.0138ZM122.243 31.6327L120.706 35.5773C120.463 36.3018 120.058 36.6238 119.573 36.6238C119.411 36.6238 119.33 36.6238 119.249 36.5433V36.0603C119.33 36.0603 119.492 36.1408 119.573 36.1408C119.815 36.1408 120.058 35.9798 120.22 35.6578L120.463 35.0138L119.168 31.6327H119.734L120.625 34.2087C120.625 34.2087 120.625 34.2892 120.706 34.4503C120.706 34.3698 120.706 34.2892 120.786 34.2087L121.757 31.5522H122.243V31.6327ZM118.44 35.0138H117.873V32.1157H117.064C116.983 33.2427 116.821 33.9672 116.578 34.4503C116.336 34.9333 116.093 35.0943 115.688 35.0943C115.607 35.0943 115.445 35.0943 115.364 35.0138V34.5307C115.445 34.5307 115.526 34.6112 115.607 34.6112C116.093 34.6112 116.416 33.6452 116.578 31.6327H118.359V35.0138H118.44ZM115.122 34.8528C114.879 35.0138 114.555 35.0943 114.232 35.0943C113.746 35.0943 113.341 34.9332 113.099 34.6112C112.775 34.2892 112.694 33.8867 112.694 33.4037C112.694 32.8402 112.856 32.3572 113.18 32.0352C113.503 31.7132 113.908 31.5522 114.474 31.5522C114.798 31.5522 115.041 31.6327 115.284 31.7132V32.2767C115.041 32.1157 114.798 32.0352 114.474 32.0352C114.151 32.0352 113.827 32.1962 113.584 32.4377C113.341 32.6792 113.26 33.0012 113.26 33.4037C113.26 33.8062 113.341 34.1282 113.584 34.3697C113.827 34.6113 114.07 34.6917 114.393 34.6917C114.717 34.6917 114.96 34.6113 115.203 34.3697V34.8528H115.122ZM109.376 33.1622V32.1157H108.729C108.243 32.1157 108.081 32.2767 108.081 32.5987C108.081 33.0012 108.324 33.1622 108.729 33.1622H109.376ZM109.943 35.0138H109.376V33.6452H108.891C108.648 33.6452 108.486 33.8062 108.324 34.2087L107.92 35.0943H107.272L107.839 34.0477C108 33.8062 108.162 33.6452 108.324 33.5647C108.081 33.5647 107.839 33.4037 107.758 33.2427C107.596 33.0817 107.515 32.9207 107.515 32.6792C107.515 32.3572 107.596 32.1157 107.839 31.9547C108.081 31.7937 108.324 31.7132 108.729 31.7132H109.943V35.0138ZM106.058 33.3232L105.249 33.4037C105.006 33.4037 104.844 33.4842 104.683 33.5647C104.521 33.6452 104.521 33.8062 104.521 34.0477C104.521 34.2087 104.602 34.3698 104.683 34.4503C104.763 34.5308 104.925 34.6112 105.168 34.6112C105.411 34.6112 105.654 34.5307 105.816 34.2892C105.977 34.1282 106.058 33.8867 106.058 33.5647V33.3232ZM106.625 35.0138H106.058V34.4503C105.816 34.8528 105.492 35.0943 105.006 35.0943C104.683 35.0943 104.44 35.0138 104.197 34.8528C104.035 34.6918 103.873 34.4502 103.873 34.1282C103.873 33.4842 104.278 33.1622 105.006 33.0012L105.977 32.8402C105.977 32.2767 105.735 31.9547 105.249 31.9547C104.844 31.9547 104.44 32.1157 104.116 32.3572V31.8742C104.44 31.6327 104.844 31.5522 105.249 31.5522C106.058 31.5522 106.463 31.9547 106.463 32.8402V35.0138H106.625ZM103.064 35.0138H102.498V33.4842H100.798V35.0138H100.232V31.6327H100.798V33.0012H102.498V31.6327H103.064V35.0138ZM97.3994 33.4037V34.5307H98.2086C98.6942 34.5307 98.856 34.3697 98.856 33.9672C98.856 33.5647 98.6133 33.4037 98.2086 33.4037H97.3994ZM96.9139 35.0138V31.6327H97.4803V32.9207H98.3705C98.6942 32.9207 99.0179 33.0012 99.1797 33.1622C99.4225 33.3232 99.5034 33.5647 99.5034 33.8867C99.5034 34.2087 99.4225 34.4502 99.1797 34.6917C98.937 34.8528 98.6942 35.0138 98.3705 35.0138H96.9139ZM95.7809 35.0138H95.2145V32.1157H94.4052C94.3243 33.2427 94.1625 33.9672 93.9197 34.4503C93.6769 34.9333 93.4341 35.0943 93.0295 35.0943C92.9486 35.0943 92.7868 35.0943 92.7058 35.0138V34.5307C92.7868 34.5307 92.8677 34.6112 92.9486 34.6112C93.4341 34.6112 93.7578 33.6452 93.9197 31.6327H95.7V35.0138H95.7809ZM91.7347 33.3232L90.9255 33.4037C90.6827 33.4037 90.5209 33.4842 90.359 33.5647C90.1972 33.6452 90.1972 33.8062 90.1972 34.0477C90.1972 34.2087 90.2781 34.3698 90.359 34.4503C90.4399 34.5308 90.6018 34.6112 90.8446 34.6112C91.0874 34.6112 91.3301 34.5307 91.492 34.2892C91.6538 34.1282 91.7347 33.8867 91.7347 33.5647V33.3232ZM92.3012 35.0138H91.7347V34.4503C91.492 34.8528 91.1683 35.0943 90.6827 35.0943C90.359 35.0943 90.1163 35.0138 89.8735 34.8528C89.7116 34.6918 89.5498 34.4502 89.5498 34.1282C89.5498 33.4842 89.9544 33.1622 90.6827 33.0012L91.6538 32.8402C91.6538 32.2767 91.411 31.9547 90.9255 31.9547C90.5209 31.9547 90.1162 32.1157 89.7925 32.3572V31.8742C90.1162 31.6327 90.5209 31.5522 90.9255 31.5522C91.7347 31.5522 92.1394 31.9547 92.1394 32.8402V35.0138H92.3012ZM86.5556 33.1622V33.6452C86.5556 33.8867 86.6365 34.1282 86.7984 34.3697C86.9602 34.5308 87.203 34.6917 87.5267 34.6917C87.8504 34.6917 88.0931 34.5307 88.3359 34.2892C88.4978 34.0477 88.5787 33.7257 88.5787 33.2427C88.5787 32.8402 88.4978 32.5987 88.3359 32.3572C88.1741 32.1157 87.9313 32.0352 87.6076 32.0352C87.2839 32.0352 87.0411 32.1157 86.8793 32.3572C86.6365 32.5182 86.5556 32.8402 86.5556 33.1622ZM86.5556 34.5307V36.5433H85.9892V31.5522H86.5556V32.1157C86.7984 31.6327 87.203 31.4717 87.6885 31.4717C88.0932 31.4717 88.4978 31.6327 88.7405 31.9547C88.9833 32.2767 89.1452 32.6792 89.1452 33.1622C89.1452 33.7257 88.9833 34.2087 88.7405 34.5307C88.4978 34.8527 88.0932 35.0138 87.6076 35.0138C87.1221 35.0943 86.7984 34.9332 86.5556 34.5307ZM84.6134 33.0012C84.6134 32.6792 84.5325 32.4377 84.3707 32.2767C84.2088 32.1157 84.0469 32.0352 83.7232 32.0352C83.4805 32.0352 83.2377 32.1157 83.0759 32.2767C82.914 32.4377 82.7522 32.6792 82.7522 33.0012H84.6134ZM82.8331 33.4842C82.8331 33.8867 82.914 34.1282 83.1568 34.3697C83.3187 34.6113 83.6424 34.6917 83.9661 34.6917C84.3707 34.6917 84.6944 34.5307 85.0181 34.2892V34.7723C84.6944 35.0138 84.2897 35.0943 83.8042 35.0943C83.3187 35.0943 82.914 34.9332 82.6712 34.6112C82.4285 34.2892 82.2666 33.8867 82.2666 33.3232C82.2666 32.7597 82.4285 32.3572 82.7522 32.0352C83.0759 31.7132 83.3996 31.5522 83.8851 31.5522C84.2897 31.5522 84.6943 31.7132 84.9371 31.9547C85.1799 32.2767 85.2608 32.6792 85.2608 33.1622V33.4842H82.8331ZM80.7291 34.5307V32.0352H80.0008C79.9198 32.9207 79.677 33.8062 79.2724 34.5307H80.7291ZM81.7811 36.2213H81.2955V35.0138H78.7869V36.2213H78.3014V34.5307H78.625C79.1915 33.7257 79.5152 32.6792 79.5152 31.6327H81.2955V34.5307H81.7811V36.2213ZM77.4112 33.0012C77.4112 32.6792 77.3303 32.4377 77.1684 32.2767C77.0066 32.1157 76.8447 32.0352 76.521 32.0352C76.2783 32.0352 76.0355 32.1157 75.8737 32.2767C75.7118 32.4377 75.5499 32.6792 75.5499 33.0012H77.4112ZM75.6308 33.4842C75.6308 33.8867 75.7118 34.1282 75.9546 34.3697C76.1164 34.6113 76.4401 34.6917 76.7638 34.6917C77.1684 34.6917 77.4921 34.5307 77.8158 34.2892V34.7723C77.4921 35.0138 77.0875 35.0943 76.6019 35.0943C76.1164 35.0943 75.7118 34.9332 75.469 34.6112C75.2263 34.2892 75.0644 33.8867 75.0644 33.3232C75.0644 32.7597 75.2262 32.3572 75.5499 32.0352C75.8736 31.7132 76.1974 31.5522 76.6829 31.5522C77.0875 31.5522 77.4921 31.7132 77.7349 31.9547C77.9777 32.2767 78.0586 32.6792 78.0586 33.1622V33.4842H75.6308ZM72.0702 33.8867V31.1497H71.9893C71.5847 31.1497 71.3419 31.3107 71.0991 31.5522C70.8564 31.7937 70.7754 32.1157 70.7754 32.5182C70.7754 32.9207 70.8564 33.2427 71.0991 33.4842C71.3419 33.7257 71.6656 33.8867 71.9893 33.8867H72.0702ZM72.5557 31.1497V33.8867H72.6367C73.0413 33.8867 73.2841 33.7257 73.5268 33.4842C73.7696 33.2427 73.8506 32.9207 73.8506 32.5182C73.8506 32.1157 73.7696 31.7937 73.5268 31.5522C73.2841 31.3107 73.0413 31.1497 72.5557 31.1497ZM72.5557 34.3697V35.0138H72.0702V34.3697H71.9893C71.4228 34.3697 71.0182 34.2087 70.6945 33.8062C70.3708 33.4842 70.209 33.0012 70.209 32.4377C70.209 31.9547 70.3708 31.4717 70.6945 31.1497C71.0182 30.8277 71.5037 30.6667 71.9893 30.6667H72.0702V30.1031H72.5557V30.6667H72.6367C73.2032 30.6667 73.6078 30.8277 73.9315 31.1497C74.2552 31.4717 74.417 31.9547 74.417 32.4377C74.417 32.9207 74.2552 33.4037 73.9315 33.8062C73.6078 34.2087 73.1222 34.3697 72.6367 34.3697H72.5557Z" fill="#2E3032"/>
<path d="M143.607 49.343H143.121V46.6059C143.04 46.6864 142.959 46.8474 142.878 47.0084L141.341 49.343H140.774V45.9619H141.26V48.6185C141.26 48.538 141.341 48.4575 141.422 48.2964L143.04 45.9619H143.607V49.343ZM139.641 49.343H139.156V46.6059C139.075 46.6864 139.075 46.8474 138.913 47.0084L137.376 49.343H136.809V45.9619H137.295V48.6185C137.295 48.538 137.376 48.4575 137.456 48.2964L139.075 45.9619H139.641V49.343ZM133.734 49.021V46.3644H133.653C133.329 46.3644 133.006 46.4449 132.844 46.6864C132.601 46.9279 132.52 47.2499 132.52 47.6524C132.52 48.055 132.601 48.3769 132.844 48.6185C133.087 48.86 133.329 49.021 133.734 49.021ZM134.22 46.3644V49.021H134.3C134.624 49.021 134.948 48.9405 135.11 48.699C135.352 48.4575 135.433 48.1355 135.433 47.733C135.433 47.3304 135.352 47.0084 135.11 46.7669C134.948 46.5254 134.624 46.4449 134.3 46.4449H134.22V46.3644ZM134.22 49.4235V50.953H133.734V49.4235H133.653C133.168 49.4235 132.763 49.2625 132.439 48.9405C132.116 48.6185 131.954 48.216 131.954 47.6524C131.954 47.0889 132.116 46.6864 132.439 46.3644C132.763 46.0424 133.168 45.8814 133.653 45.8814H133.734V44.5129H134.22V45.8814H134.3C134.786 45.8814 135.191 46.0424 135.514 46.3644C135.838 46.6864 136 47.1694 136 47.6524C136 48.1355 135.838 48.6185 135.514 48.9405C135.191 49.2625 134.786 49.4235 134.3 49.4235H134.22ZM130.659 47.6524L129.85 47.733C129.607 47.733 129.445 47.8134 129.283 47.8939C129.121 47.9744 129.121 48.1355 129.121 48.377C129.121 48.538 129.202 48.699 129.283 48.7795C129.364 48.86 129.526 48.9405 129.769 48.9405C130.011 48.9405 130.254 48.86 130.416 48.6185C130.578 48.4574 130.659 48.2159 130.659 47.8939V47.6524ZM131.225 49.343H130.659V48.7795C130.416 49.182 130.092 49.4235 129.607 49.4235C129.283 49.4235 129.04 49.343 128.798 49.182C128.636 49.021 128.474 48.7795 128.474 48.4575C128.474 47.8134 128.879 47.4914 129.607 47.3304L130.578 47.1694C130.578 46.6059 130.335 46.2839 129.85 46.2839C129.445 46.2839 129.04 46.4449 128.717 46.6864V46.1229C129.04 45.8814 129.445 45.8009 129.85 45.8009C130.659 45.8009 131.063 46.2034 131.063 47.0889V49.343H131.225ZM125.48 47.4914V47.9744C125.48 48.216 125.561 48.4575 125.722 48.699C125.884 48.86 126.127 49.021 126.451 49.021C126.775 49.021 127.017 48.86 127.26 48.6185C127.422 48.3769 127.503 48.055 127.503 47.5719C127.503 47.1694 127.422 46.9279 127.26 46.6864C127.098 46.4449 126.855 46.3644 126.532 46.3644C126.208 46.3644 125.965 46.4449 125.803 46.6864C125.561 46.9279 125.48 47.1694 125.48 47.4914ZM125.48 48.86V50.8725H124.913V45.8814H125.48V46.4449C125.722 45.9619 126.127 45.8009 126.613 45.8009C127.017 45.8009 127.422 45.9619 127.665 46.2839C127.907 46.6059 128.069 47.0084 128.069 47.4914C128.069 48.0549 127.907 48.538 127.665 48.86C127.422 49.182 127.017 49.343 126.532 49.343C126.046 49.4235 125.722 49.2625 125.48 48.86Z" fill="#2E3032"/>
<rect width="57.466" height="74.511" fill="#67981A"/>
<path d="M29.8635 9.25293C39.3557 9.57351 46.9976 17.2675 47.2389 26.8049H29.8635V9.25293Z" fill="white"/>
<path d="M11.2009 64.3933C20.6931 64.0727 28.335 56.3787 28.5763 46.8413H11.2009V64.3933Z" fill="white"/>
<path d="M28.6568 28.0073H11.2009V45.5593H28.6568V28.0073Z" fill="white"/>
<path d="M13.0445 24.8656H26.8712V11.0898C19.8306 12.2587 14.2321 17.8525 13.0445 24.8656Z" fill="#4B72AC"/>
<path d="M28.5763 9.25293C19.0842 9.57351 11.4423 17.2675 11.2009 26.8049H28.5763V9.25293ZM26.5653 11.497V24.7211H13.3729C14.5795 17.9888 19.8886 12.6191 26.5653 11.497Z" fill="white"/>
<path d="M31.4046 29.4576V44.1517C38.4452 42.905 44.1285 36.9382 45.2313 29.4576H31.4046Z" fill="#67981A"/>
<path d="M47.1629 28.0073H29.707V45.5593C39.1992 45.2387 46.8411 37.5447 47.1629 28.0073ZM44.9106 30.0911C43.7844 36.8234 38.4752 42.1931 31.7181 43.3152V30.0911H44.9106Z" fill="white"/>
</svg>
